<?xml version="1.0" encoding="iso-8859-1"?>
<!-- Uploaded to: SVG Repo, www.svgrepo.com, Generator: SVG Repo Mixer Tools -->
<svg height="800px" width="800px" version="1.1" id="Layer_1" xmlns="http://www.w3.org/2000/svg" xmlns:xlink="http://www.w3.org/1999/xlink" 
	 viewBox="0 0 512 512" xml:space="preserve">
<g transform="translate(1 1)">
	<polygon style="fill:#D0E8F9;" points="7.533,173.933 502.467,173.933 502.467,225.133 7.533,225.133 	"/>
	<path style="fill:#0096E6;" d="M511,233.667H-1V165.4h512V233.667z M16.067,216.6h477.867v-34.133H16.067V216.6z"/>
	<path style="fill:#FFFFFF;" d="M454.68,498.2H55.32c-17.067,0-30.72-13.653-30.72-30.72V225.133h460.8V467.48
		C485.4,484.547,471.747,498.2,454.68,498.2L454.68,498.2z"/>
	<path style="fill:#0096E6;" d="M454.68,506.733H55.32c-22.187,0-39.253-17.067-39.253-39.253V216.6h477.867v250.88
		C493.933,489.667,476.867,506.733,454.68,506.733z M33.133,233.667V467.48c0,11.947,10.24,22.187,22.187,22.187h400.213
		c11.947,0,22.187-10.24,22.187-22.187V233.667H33.133z"/>
	<path style="fill:#D0E8F9;" d="M323.267,63H186.733c-13.653,0-25.6-11.093-25.6-25.6s11.947-25.6,25.6-25.6h136.533
		c14.507,0,25.6,11.947,25.6,25.6S337.773,63,323.267,63L323.267,63z"/>
	<g>
		<path style="fill:#0096E6;" d="M323.267,71.533H186.733c-18.773,0-34.133-15.36-34.133-34.133s15.36-34.133,34.133-34.133h136.533
			c18.773,0,34.133,15.36,34.133,34.133S342.04,71.533,323.267,71.533z M186.733,20.333c-9.387,0-17.067,7.68-17.067,17.067
			s7.68,17.067,17.067,17.067h136.533c9.387,0,17.067-7.68,17.067-17.067s-7.68-17.067-17.067-17.067H186.733z"/>
		<path style="fill:#0096E6;" d="M58.733,208.067c-0.853,0-2.56,0-3.413-0.853c-4.267-1.707-5.973-6.827-4.267-11.093
			l62.293-149.333c5.12-11.093,16.213-17.92,28.16-17.92h19.627c5.12,0,8.533,3.413,8.533,8.533s-3.413,8.533-8.533,8.533h-19.627
			c-5.12,0-10.24,3.413-11.947,7.68L66.413,202.947C65.56,206.36,62.147,208.067,58.733,208.067z M451.267,208.067
			c-3.413,0-6.827-1.707-7.68-5.12L380.44,53.613c-1.707-4.267-6.827-7.68-11.947-7.68h-19.627c-5.12,0-8.533-3.413-8.533-8.533
			s3.413-8.533,8.533-8.533h19.627c11.947,0,23.04,6.827,28.16,18.773l62.293,149.333c1.707,4.267,0,9.387-4.267,11.093
			C453.827,208.067,452.12,208.067,451.267,208.067z"/>
		<path style="fill:#0096E6;" d="M212.333,276.333c0,5.12-3.413,8.533-8.533,8.533c-5.12,0-8.533-3.413-8.533-8.533
			s3.413-8.533,8.533-8.533C208.92,267.8,212.333,271.213,212.333,276.333"/>
		<path style="fill:#0096E6;" d="M237.933,250.733c0,5.12-3.413,8.533-8.533,8.533c-5.12,0-8.533-3.413-8.533-8.533
			c0-5.12,3.413-8.533,8.533-8.533C234.52,242.2,237.933,245.613,237.933,250.733"/>
		<path style="fill:#0096E6;" d="M237.933,301.933c0,5.12-3.413,8.533-8.533,8.533c-5.12,0-8.533-3.413-8.533-8.533
			s3.413-8.533,8.533-8.533C234.52,293.4,237.933,296.813,237.933,301.933"/>
		<path style="fill:#0096E6;" d="M263.533,276.333c0,5.12-3.413,8.533-8.533,8.533s-8.533-3.413-8.533-8.533S249.88,267.8,255,267.8
			S263.533,271.213,263.533,276.333"/>
		<path style="fill:#0096E6;" d="M161.133,276.333c0,5.12-3.413,8.533-8.533,8.533c-5.12,0-8.533-3.413-8.533-8.533
			s3.413-8.533,8.533-8.533C157.72,267.8,161.133,271.213,161.133,276.333"/>
		<path style="fill:#0096E6;" d="M186.733,250.733c0,5.12-3.413,8.533-8.533,8.533c-5.12,0-8.533-3.413-8.533-8.533
			c0-5.12,3.413-8.533,8.533-8.533C183.32,242.2,186.733,245.613,186.733,250.733"/>
		<path style="fill:#0096E6;" d="M186.733,301.933c0,5.12-3.413,8.533-8.533,8.533c-5.12,0-8.533-3.413-8.533-8.533
			s3.413-8.533,8.533-8.533C183.32,293.4,186.733,296.813,186.733,301.933"/>
		<path style="fill:#0096E6;" d="M58.733,276.333c0,5.12-3.413,8.533-8.533,8.533s-8.533-3.413-8.533-8.533S45.08,267.8,50.2,267.8
			S58.733,271.213,58.733,276.333"/>
		<path style="fill:#0096E6;" d="M109.933,276.333c0,5.12-3.413,8.533-8.533,8.533c-5.12,0-8.533-3.413-8.533-8.533
			s3.413-8.533,8.533-8.533C106.52,267.8,109.933,271.213,109.933,276.333"/>
		<path style="fill:#0096E6;" d="M84.333,250.733c0,5.12-3.413,8.533-8.533,8.533s-8.533-3.413-8.533-8.533
			c0-5.12,3.413-8.533,8.533-8.533C80.92,242.2,84.333,245.613,84.333,250.733"/>
		<path style="fill:#0096E6;" d="M135.533,250.733c0,5.12-3.413,8.533-8.533,8.533s-8.533-3.413-8.533-8.533
			c0-5.12,3.413-8.533,8.533-8.533S135.533,245.613,135.533,250.733"/>
		<path style="fill:#0096E6;" d="M84.333,301.933c0,5.12-3.413,8.533-8.533,8.533s-8.533-3.413-8.533-8.533S70.68,293.4,75.8,293.4
			C80.92,293.4,84.333,296.813,84.333,301.933"/>
		<path style="fill:#0096E6;" d="M135.533,301.933c0,5.12-3.413,8.533-8.533,8.533s-8.533-3.413-8.533-8.533S121.88,293.4,127,293.4
			S135.533,296.813,135.533,301.933"/>
		<path style="fill:#0096E6;" d="M468.333,276.333c0,5.12-3.413,8.533-8.533,8.533s-8.533-3.413-8.533-8.533
			s3.413-8.533,8.533-8.533S468.333,271.213,468.333,276.333"/>
		<path style="fill:#0096E6;" d="M417.133,276.333c0,5.12-3.413,8.533-8.533,8.533c-5.12,0-8.533-3.413-8.533-8.533
			s3.413-8.533,8.533-8.533C413.72,267.8,417.133,271.213,417.133,276.333"/>
		<path style="fill:#0096E6;" d="M442.733,250.733c0,5.12-3.413,8.533-8.533,8.533c-5.12,0-8.533-3.413-8.533-8.533
			c0-5.12,3.413-8.533,8.533-8.533C439.32,242.2,442.733,245.613,442.733,250.733"/>
		<path style="fill:#0096E6;" d="M442.733,301.933c0,5.12-3.413,8.533-8.533,8.533c-5.12,0-8.533-3.413-8.533-8.533
			s3.413-8.533,8.533-8.533C439.32,293.4,442.733,296.813,442.733,301.933"/>
		<path style="fill:#0096E6;" d="M289.133,250.733c0,5.12-3.413,8.533-8.533,8.533s-8.533-3.413-8.533-8.533
			c0-5.12,3.413-8.533,8.533-8.533S289.133,245.613,289.133,250.733"/>
		<path style="fill:#0096E6;" d="M289.133,301.933c0,5.12-3.413,8.533-8.533,8.533s-8.533-3.413-8.533-8.533
			s3.413-8.533,8.533-8.533S289.133,296.813,289.133,301.933"/>
		<path style="fill:#0096E6;" d="M314.733,276.333c0,5.12-3.413,8.533-8.533,8.533s-8.533-3.413-8.533-8.533
			s3.413-8.533,8.533-8.533S314.733,271.213,314.733,276.333"/>
		<path style="fill:#0096E6;" d="M365.933,276.333c0,5.12-3.413,8.533-8.533,8.533s-8.533-3.413-8.533-8.533
			s3.413-8.533,8.533-8.533S365.933,271.213,365.933,276.333"/>
		<path style="fill:#0096E6;" d="M212.333,327.533c0,5.12-3.413,8.533-8.533,8.533c-5.12,0-8.533-3.413-8.533-8.533
			S198.68,319,203.8,319C208.92,319,212.333,322.413,212.333,327.533"/>
		<path style="fill:#0096E6;" d="M263.533,327.533c0,5.12-3.413,8.533-8.533,8.533s-8.533-3.413-8.533-8.533S249.88,319,255,319
			S263.533,322.413,263.533,327.533"/>
		<path style="fill:#0096E6;" d="M161.133,327.533c0,5.12-3.413,8.533-8.533,8.533c-5.12,0-8.533-3.413-8.533-8.533
			S147.48,319,152.6,319C157.72,319,161.133,322.413,161.133,327.533"/>
		<path style="fill:#0096E6;" d="M58.733,327.533c0,5.12-3.413,8.533-8.533,8.533s-8.533-3.413-8.533-8.533S45.08,319,50.2,319
			S58.733,322.413,58.733,327.533"/>
		<path style="fill:#0096E6;" d="M109.933,327.533c0,5.12-3.413,8.533-8.533,8.533c-5.12,0-8.533-3.413-8.533-8.533
			S96.28,319,101.4,319C106.52,319,109.933,322.413,109.933,327.533"/>
		<path style="fill:#0096E6;" d="M468.333,327.533c0,5.12-3.413,8.533-8.533,8.533s-8.533-3.413-8.533-8.533S454.68,319,459.8,319
			S468.333,322.413,468.333,327.533"/>
		<path style="fill:#0096E6;" d="M417.133,327.533c0,5.12-3.413,8.533-8.533,8.533c-5.12,0-8.533-3.413-8.533-8.533
			S403.48,319,408.6,319C413.72,319,417.133,322.413,417.133,327.533"/>
		<path style="fill:#0096E6;" d="M314.733,327.533c0,5.12-3.413,8.533-8.533,8.533s-8.533-3.413-8.533-8.533S301.08,319,306.2,319
			S314.733,322.413,314.733,327.533"/>
		<path style="fill:#0096E6;" d="M365.933,327.533c0,5.12-3.413,8.533-8.533,8.533s-8.533-3.413-8.533-8.533S352.28,319,357.4,319
			S365.933,322.413,365.933,327.533"/>
		<path style="fill:#0096E6;" d="M340.333,250.733c0,5.12-3.413,8.533-8.533,8.533s-8.533-3.413-8.533-8.533
			c0-5.12,3.413-8.533,8.533-8.533S340.333,245.613,340.333,250.733"/>
		<path style="fill:#0096E6;" d="M391.533,250.733c0,5.12-3.413,8.533-8.533,8.533c-5.12,0-8.533-3.413-8.533-8.533
			c0-5.12,3.413-8.533,8.533-8.533C388.12,242.2,391.533,245.613,391.533,250.733"/>
		<path style="fill:#0096E6;" d="M340.333,301.933c0,5.12-3.413,8.533-8.533,8.533s-8.533-3.413-8.533-8.533
			s3.413-8.533,8.533-8.533S340.333,296.813,340.333,301.933"/>
		<path style="fill:#0096E6;" d="M391.533,301.933c0,5.12-3.413,8.533-8.533,8.533c-5.12,0-8.533-3.413-8.533-8.533
			S377.88,293.4,383,293.4C388.12,293.4,391.533,296.813,391.533,301.933"/>
		<path style="fill:#0096E6;" d="M212.333,378.733c0,5.12-3.413,8.533-8.533,8.533c-5.12,0-8.533-3.413-8.533-8.533
			c0-5.12,3.413-8.533,8.533-8.533C208.92,370.2,212.333,373.613,212.333,378.733"/>
		<path style="fill:#0096E6;" d="M237.933,353.133c0,5.12-3.413,8.533-8.533,8.533c-5.12,0-8.533-3.413-8.533-8.533
			c0-5.12,3.413-8.533,8.533-8.533C234.52,344.6,237.933,348.013,237.933,353.133"/>
		<path style="fill:#0096E6;" d="M237.933,404.333c0,5.12-3.413,8.533-8.533,8.533c-5.12,0-8.533-3.413-8.533-8.533
			c0-5.12,3.413-8.533,8.533-8.533C234.52,395.8,237.933,399.213,237.933,404.333"/>
		<path style="fill:#0096E6;" d="M263.533,378.733c0,5.12-3.413,8.533-8.533,8.533s-8.533-3.413-8.533-8.533
			c0-5.12,3.413-8.533,8.533-8.533S263.533,373.613,263.533,378.733"/>
		<path style="fill:#0096E6;" d="M161.133,378.733c0,5.12-3.413,8.533-8.533,8.533c-5.12,0-8.533-3.413-8.533-8.533
			c0-5.12,3.413-8.533,8.533-8.533C157.72,370.2,161.133,373.613,161.133,378.733"/>
		<path style="fill:#0096E6;" d="M186.733,353.133c0,5.12-3.413,8.533-8.533,8.533c-5.12,0-8.533-3.413-8.533-8.533
			c0-5.12,3.413-8.533,8.533-8.533C183.32,344.6,186.733,348.013,186.733,353.133"/>
		<path style="fill:#0096E6;" d="M186.733,404.333c0,5.12-3.413,8.533-8.533,8.533c-5.12,0-8.533-3.413-8.533-8.533
			c0-5.12,3.413-8.533,8.533-8.533C183.32,395.8,186.733,399.213,186.733,404.333"/>
		<path style="fill:#0096E6;" d="M58.733,378.733c0,5.12-3.413,8.533-8.533,8.533s-8.533-3.413-8.533-8.533
			c0-5.12,3.413-8.533,8.533-8.533S58.733,373.613,58.733,378.733"/>
		<path style="fill:#0096E6;" d="M109.933,378.733c0,5.12-3.413,8.533-8.533,8.533c-5.12,0-8.533-3.413-8.533-8.533
			c0-5.12,3.413-8.533,8.533-8.533C106.52,370.2,109.933,373.613,109.933,378.733"/>
		<path style="fill:#0096E6;" d="M84.333,353.133c0,5.12-3.413,8.533-8.533,8.533s-8.533-3.413-8.533-8.533
			c0-5.12,3.413-8.533,8.533-8.533C80.92,344.6,84.333,348.013,84.333,353.133"/>
		<path style="fill:#0096E6;" d="M135.533,353.133c0,5.12-3.413,8.533-8.533,8.533s-8.533-3.413-8.533-8.533
			c0-5.12,3.413-8.533,8.533-8.533S135.533,348.013,135.533,353.133"/>
		<path style="fill:#0096E6;" d="M84.333,404.333c0,5.12-3.413,8.533-8.533,8.533s-8.533-3.413-8.533-8.533
			c0-5.12,3.413-8.533,8.533-8.533C80.92,395.8,84.333,399.213,84.333,404.333"/>
		<path style="fill:#0096E6;" d="M135.533,404.333c0,5.12-3.413,8.533-8.533,8.533s-8.533-3.413-8.533-8.533
			c0-5.12,3.413-8.533,8.533-8.533S135.533,399.213,135.533,404.333"/>
		<path style="fill:#0096E6;" d="M468.333,378.733c0,5.12-3.413,8.533-8.533,8.533s-8.533-3.413-8.533-8.533
			c0-5.12,3.413-8.533,8.533-8.533S468.333,373.613,468.333,378.733"/>
		<path style="fill:#0096E6;" d="M417.133,378.733c0,5.12-3.413,8.533-8.533,8.533c-5.12,0-8.533-3.413-8.533-8.533
			c0-5.12,3.413-8.533,8.533-8.533C413.72,370.2,417.133,373.613,417.133,378.733"/>
		<path style="fill:#0096E6;" d="M442.733,353.133c0,5.12-3.413,8.533-8.533,8.533c-5.12,0-8.533-3.413-8.533-8.533
			c0-5.12,3.413-8.533,8.533-8.533C439.32,344.6,442.733,348.013,442.733,353.133"/>
		<path style="fill:#0096E6;" d="M442.733,404.333c0,5.12-3.413,8.533-8.533,8.533c-5.12,0-8.533-3.413-8.533-8.533
			c0-5.12,3.413-8.533,8.533-8.533C439.32,395.8,442.733,399.213,442.733,404.333"/>
		<path style="fill:#0096E6;" d="M289.133,353.133c0,5.12-3.413,8.533-8.533,8.533s-8.533-3.413-8.533-8.533
			c0-5.12,3.413-8.533,8.533-8.533S289.133,348.013,289.133,353.133"/>
		<path style="fill:#0096E6;" d="M289.133,404.333c0,5.12-3.413,8.533-8.533,8.533s-8.533-3.413-8.533-8.533
			c0-5.12,3.413-8.533,8.533-8.533S289.133,399.213,289.133,404.333"/>
		<path style="fill:#0096E6;" d="M314.733,378.733c0,5.12-3.413,8.533-8.533,8.533s-8.533-3.413-8.533-8.533
			c0-5.12,3.413-8.533,8.533-8.533S314.733,373.613,314.733,378.733"/>
		<path style="fill:#0096E6;" d="M365.933,378.733c0,5.12-3.413,8.533-8.533,8.533s-8.533-3.413-8.533-8.533
			c0-5.12,3.413-8.533,8.533-8.533S365.933,373.613,365.933,378.733"/>
		<path style="fill:#0096E6;" d="M212.333,429.933c0,5.12-3.413,8.533-8.533,8.533c-5.12,0-8.533-3.413-8.533-8.533
			s3.413-8.533,8.533-8.533C208.92,421.4,212.333,424.813,212.333,429.933"/>
		<path style="fill:#0096E6;" d="M263.533,429.933c0,5.12-3.413,8.533-8.533,8.533s-8.533-3.413-8.533-8.533S249.88,421.4,255,421.4
			S263.533,424.813,263.533,429.933"/>
		<path style="fill:#0096E6;" d="M161.133,429.933c0,5.12-3.413,8.533-8.533,8.533c-5.12,0-8.533-3.413-8.533-8.533
			s3.413-8.533,8.533-8.533C157.72,421.4,161.133,424.813,161.133,429.933"/>
		<path style="fill:#0096E6;" d="M58.733,429.933c0,5.12-3.413,8.533-8.533,8.533s-8.533-3.413-8.533-8.533S45.08,421.4,50.2,421.4
			S58.733,424.813,58.733,429.933"/>
		<path style="fill:#0096E6;" d="M109.933,429.933c0,5.12-3.413,8.533-8.533,8.533c-5.12,0-8.533-3.413-8.533-8.533
			s3.413-8.533,8.533-8.533C106.52,421.4,109.933,424.813,109.933,429.933"/>
		<path style="fill:#0096E6;" d="M468.333,429.933c0,5.12-3.413,8.533-8.533,8.533s-8.533-3.413-8.533-8.533
			s3.413-8.533,8.533-8.533S468.333,424.813,468.333,429.933"/>
		<path style="fill:#0096E6;" d="M417.133,429.933c0,5.12-3.413,8.533-8.533,8.533c-5.12,0-8.533-3.413-8.533-8.533
			s3.413-8.533,8.533-8.533C413.72,421.4,417.133,424.813,417.133,429.933"/>
		<path style="fill:#0096E6;" d="M314.733,429.933c0,5.12-3.413,8.533-8.533,8.533s-8.533-3.413-8.533-8.533
			s3.413-8.533,8.533-8.533S314.733,424.813,314.733,429.933"/>
		<path style="fill:#0096E6;" d="M365.933,429.933c0,5.12-3.413,8.533-8.533,8.533s-8.533-3.413-8.533-8.533
			s3.413-8.533,8.533-8.533S365.933,424.813,365.933,429.933"/>
		<path style="fill:#0096E6;" d="M340.333,353.133c0,5.12-3.413,8.533-8.533,8.533s-8.533-3.413-8.533-8.533
			c0-5.12,3.413-8.533,8.533-8.533S340.333,348.013,340.333,353.133"/>
		<path style="fill:#0096E6;" d="M391.533,353.133c0,5.12-3.413,8.533-8.533,8.533c-5.12,0-8.533-3.413-8.533-8.533
			c0-5.12,3.413-8.533,8.533-8.533C388.12,344.6,391.533,348.013,391.533,353.133"/>
		<path style="fill:#0096E6;" d="M340.333,404.333c0,5.12-3.413,8.533-8.533,8.533s-8.533-3.413-8.533-8.533
			c0-5.12,3.413-8.533,8.533-8.533S340.333,399.213,340.333,404.333"/>
		<path style="fill:#0096E6;" d="M391.533,404.333c0,5.12-3.413,8.533-8.533,8.533c-5.12,0-8.533-3.413-8.533-8.533
			c0-5.12,3.413-8.533,8.533-8.533C388.12,395.8,391.533,399.213,391.533,404.333"/>
		<path style="fill:#0096E6;" d="M212.333,481.133c0,5.12-3.413,8.533-8.533,8.533c-5.12,0-8.533-3.413-8.533-8.533
			s3.413-8.533,8.533-8.533C208.92,472.6,212.333,476.013,212.333,481.133"/>
		<path style="fill:#0096E6;" d="M237.933,455.533c0,5.12-3.413,8.533-8.533,8.533c-5.12,0-8.533-3.413-8.533-8.533
			S224.28,447,229.4,447C234.52,447,237.933,450.413,237.933,455.533"/>
		<path style="fill:#0096E6;" d="M263.533,481.133c0,5.12-3.413,8.533-8.533,8.533s-8.533-3.413-8.533-8.533S249.88,472.6,255,472.6
			S263.533,476.013,263.533,481.133"/>
		<path style="fill:#0096E6;" d="M161.133,481.133c0,5.12-3.413,8.533-8.533,8.533c-5.12,0-8.533-3.413-8.533-8.533
			s3.413-8.533,8.533-8.533C157.72,472.6,161.133,476.013,161.133,481.133"/>
		<path style="fill:#0096E6;" d="M186.733,455.533c0,5.12-3.413,8.533-8.533,8.533c-5.12,0-8.533-3.413-8.533-8.533
			S173.08,447,178.2,447C183.32,447,186.733,450.413,186.733,455.533"/>
		<path style="fill:#0096E6;" d="M58.733,481.133c0,5.12-3.413,8.533-8.533,8.533s-8.533-3.413-8.533-8.533S45.08,472.6,50.2,472.6
			S58.733,476.013,58.733,481.133"/>
		<path style="fill:#0096E6;" d="M109.933,481.133c0,5.12-3.413,8.533-8.533,8.533c-5.12,0-8.533-3.413-8.533-8.533
			s3.413-8.533,8.533-8.533C106.52,472.6,109.933,476.013,109.933,481.133"/>
		<path style="fill:#0096E6;" d="M84.333,455.533c0,5.12-3.413,8.533-8.533,8.533s-8.533-3.413-8.533-8.533S70.68,447,75.8,447
			C80.92,447,84.333,450.413,84.333,455.533"/>
		<path style="fill:#0096E6;" d="M135.533,455.533c0,5.12-3.413,8.533-8.533,8.533s-8.533-3.413-8.533-8.533S121.88,447,127,447
			S135.533,450.413,135.533,455.533"/>
		<path style="fill:#0096E6;" d="M468.333,481.133c0,5.12-3.413,8.533-8.533,8.533s-8.533-3.413-8.533-8.533
			s3.413-8.533,8.533-8.533S468.333,476.013,468.333,481.133"/>
		<path style="fill:#0096E6;" d="M417.133,481.133c0,5.12-3.413,8.533-8.533,8.533c-5.12,0-8.533-3.413-8.533-8.533
			s3.413-8.533,8.533-8.533C413.72,472.6,417.133,476.013,417.133,481.133"/>
		<path style="fill:#0096E6;" d="M442.733,455.533c0,5.12-3.413,8.533-8.533,8.533c-5.12,0-8.533-3.413-8.533-8.533
			S429.08,447,434.2,447C439.32,447,442.733,450.413,442.733,455.533"/>
		<path style="fill:#0096E6;" d="M289.133,455.533c0,5.12-3.413,8.533-8.533,8.533s-8.533-3.413-8.533-8.533S275.48,447,280.6,447
			S289.133,450.413,289.133,455.533"/>
		<path style="fill:#0096E6;" d="M314.733,481.133c0,5.12-3.413,8.533-8.533,8.533s-8.533-3.413-8.533-8.533
			s3.413-8.533,8.533-8.533S314.733,476.013,314.733,481.133"/>
		<path style="fill:#0096E6;" d="M365.933,481.133c0,5.12-3.413,8.533-8.533,8.533s-8.533-3.413-8.533-8.533
			s3.413-8.533,8.533-8.533S365.933,476.013,365.933,481.133"/>
		<path style="fill:#0096E6;" d="M340.333,455.533c0,5.12-3.413,8.533-8.533,8.533s-8.533-3.413-8.533-8.533S326.68,447,331.8,447
			S340.333,450.413,340.333,455.533"/>
		<path style="fill:#0096E6;" d="M391.533,455.533c0,5.12-3.413,8.533-8.533,8.533c-5.12,0-8.533-3.413-8.533-8.533
			S377.88,447,383,447C388.12,447,391.533,450.413,391.533,455.533"/>
	</g>
</g>
</svg>