<?xml version="1.0" encoding="iso-8859-1"?>
<!-- Uploaded to: SVG Repo, www.svgrepo.com, Generator: SVG Repo Mixer Tools -->
<svg fill="#000000" height="800px" width="800px" version="1.1" id="Layer_1" xmlns="http://www.w3.org/2000/svg" xmlns:xlink="http://www.w3.org/1999/xlink" 
	 viewBox="0 0 512.042 512.042" xml:space="preserve">
<g>
	<g>
		<g>
			<circle cx="76.802" cy="261.743" r="8.533"/>
			<circle cx="110.935" cy="261.743" r="8.533"/>
			<path d="M509.41,285.857l-8.544-19.961c-0.062-0.145-0.148-0.274-0.217-0.415c-1.405-3.563-3.674-7.096-7-10.449
				c-13.832-13.941-43.274-21.605-92.647-21.5c-0.306,0-0.616,0.002-0.924,0.003c-1.215,0.005-2.437,0.013-3.676,0.027
				c-0.841,0.009-1.692,0.022-2.544,0.036c-0.715,0.012-1.429,0.023-2.151,0.038c-1.378,0.027-2.773,0.062-4.179,0.1
				c-0.129,0.004-0.253,0.005-0.382,0.009l-39.098-18.398l0.249-0.415c2.425-4.041,1.114-9.283-2.927-11.708
				c-4.041-2.425-9.283-1.114-11.708,2.927l-1.135,1.893l-19.083-8.98l0.719-1.199c2.425-4.041,1.114-9.283-2.927-11.708
				c-4.041-2.425-9.283-1.114-11.708,2.927l-1.606,2.676l-19.083-8.979l1.19-1.983c2.425-4.041,1.114-9.283-2.927-11.708
				c-4.041-2.425-9.283-1.114-11.708,2.927l-2.076,3.46l-19.083-8.979l1.66-2.766c2.425-4.041,1.114-9.283-2.927-11.708
				c-4.041-2.425-9.283-1.114-11.708,2.927l-2.546,4.244l-22.752-10.706c-3.898-1.834-8.553-0.475-10.851,3.169
				c-0.526,0.834-1.423,2.126-2.666,3.766c-0.067,0.082-0.137,0.157-0.202,0.243c-0.68,0.896-1.38,1.789-2.093,2.679
				c-0.22,0.272-0.442,0.545-0.675,0.828c-0.061,0.075-0.125,0.149-0.186,0.224c-4.932,5.956-10.805,11.924-17.584,17.491
				c-4.035,3.313-8.183,6.32-12.433,9.038c-5.329,3.325-11.023,6.299-17.098,8.779c-28.283,11.546-60.061,10.477-95.756-7.099
				c-0.301-0.149-0.6-0.29-0.902-0.441c-0.804-0.401-1.612-0.822-2.42-1.24c-0.779-0.404-1.559-0.813-2.341-1.233
				c-0.661-0.354-1.323-0.709-1.987-1.074c-1.218-0.671-2.441-1.36-3.67-2.069c-0.247-0.142-0.491-0.276-0.738-0.42
				c-1.189-0.692-2.454-1.049-3.709-1.135c-6.893-1.755-13.586-11.563-13.586-20.655c0-4.713-3.82-8.533-8.533-8.533
				s-8.533,3.821-8.533,8.533c0,14.104,8.42,28.596,20.316,34.84c-0.566,3.003-1.178,6.239-1.828,9.669
				c-2.406,12.69-4.838,25.379-7.141,37.219c-0.323,1.661-0.323,1.661-0.647,3.32c-5.3,27.157-9.127,45.59-10.235,49.006
				c-0.216,0.627-0.36,1.287-0.423,1.973c-0.013,0.13-0.014,0.258-0.021,0.388c-0.007,0.138-0.022,0.274-0.022,0.413v50.901
				c0,4.64,3.707,8.43,8.346,8.531c0.878,0.019,0.878,0.019,5.054,0.112c5.714,0.127,8.902,0.198,14.287,0.319
				c15.386,0.346,32.531,0.738,50.995,1.167c52.753,1.226,105.506,2.508,154.74,3.781c25.951,0.671,50.263,1.324,72.639,1.952
				c14.707,0.413,28.514,0.813,41.355,1.201c70.483,2.135,118.744-10.72,149.103-32.552
				C510.725,321.348,515.591,302.632,509.41,285.857z M40.279,203.602c1.221,0.591,2.438,1.159,3.652,1.715
				c0.011,0.005,0.022,0.01,0.034,0.015c47.32,21.686,89.042,17.432,123.964-4.673c4.408-2.725,8.596-5.649,12.537-8.753
				l-32.161,103.636c-16.569-0.692-33.123-1.475-49.545-2.334c-23.216-1.214-44.995-2.515-64.706-3.815
				c-5.428-0.358-10.39-0.696-14.848-1.008c1.936-8.837,4.708-22.595,8.246-40.721c0.325-1.664,0.325-1.664,0.649-3.331
				c2.309-11.87,4.745-24.584,7.156-37.298c0.353-1.859,0.694-3.663,1.023-5.404c0.961,0.491,1.913,0.945,2.87,1.415
				C39.526,203.23,39.903,203.421,40.279,203.602z M392.313,250.696c0.666-0.013,1.329-0.026,1.987-0.037
				c0.699-0.011,1.403-0.023,2.093-0.031c0.547-0.007,1.083-0.01,1.624-0.014c46.722-0.379,72.993,6.198,83.157,16.443
				c3.221,3.247,4.093,6.151,3.771,8.721c-10.292,9.508-45.696,16.696-99.856,20.248l0,0L392.313,250.696z M208.589,209.327
				c4.041,2.425,9.283,1.114,11.708-2.927l15.115-25.191l19.083,8.979l-14.699,24.498c-2.425,4.041-1.114,9.283,2.927,11.708
				c4.041,2.425,9.283,1.114,11.708-2.927l15.585-25.975l19.083,8.979l-15.169,25.282c-2.425,4.041-1.114,9.283,2.927,11.708
				s9.283,1.114,11.708-2.927l16.055-26.759l19.083,8.979l-15.639,26.065c-2.425,4.041-1.114,9.283,2.927,11.708
				c4.041,2.425,9.283,1.114,11.708-2.927l16.526-27.542l36.37,17.114l-7.944,49.848c-32.943,1.571-71.71,2.071-115.185,1.496
				c-27.891-0.369-56.905-1.149-86.51-2.265l40.001-128.902l13.935,6.557l-14.229,23.714
				C203.237,201.66,204.548,206.902,208.589,209.327z M486.549,317.732c-27.112,19.497-71.692,31.372-138.617,29.344
				c-12.855-0.388-26.674-0.788-41.392-1.202c-22.39-0.628-46.714-1.281-72.677-1.953c-49.251-1.274-102.018-2.556-154.785-3.782
				c-18.468-0.429-35.617-0.821-51.008-1.167c-4.264-0.096-7.15-0.161-11.004-0.246v-33.379c4.713,0.332,9.999,0.693,15.825,1.078
				c19.758,1.305,41.585,2.609,64.855,3.827c53.025,2.774,105.46,4.682,154.495,5.33c11.999,0.159,23.601,0.243,34.817,0.254
				c0.053,0,0.106,0,0.158,0c1.798,0.002,3.586,0.001,5.364-0.001c0.118,0,0.235,0,0.353-0.001c1.745-0.003,3.48-0.007,5.205-0.013
				c0.109,0,0.216-0.001,0.325-0.001c10.852-0.041,21.314-0.158,31.372-0.354c0.042-0.001,0.084-0.002,0.126-0.002
				c1.393-0.027,2.774-0.057,4.151-0.088c0.381-0.008,0.765-0.016,1.146-0.025c1.238-0.028,2.466-0.058,3.691-0.089
				c0.498-0.012,0.997-0.025,1.492-0.038c1.147-0.03,2.287-0.061,3.423-0.093c0.575-0.016,1.15-0.033,1.723-0.049
				c1.076-0.032,2.147-0.065,3.213-0.098c0.613-0.019,1.225-0.039,1.835-0.059c1.025-0.034,2.047-0.068,3.063-0.104
				c0.648-0.023,1.293-0.046,1.938-0.07c0.975-0.036,1.949-0.072,2.915-0.109c0.67-0.026,1.334-0.053,1.999-0.08
				c0.94-0.038,1.881-0.076,2.813-0.116c0.668-0.028,1.328-0.058,1.991-0.088c0.921-0.041,1.843-0.081,2.755-0.124
				c0.681-0.032,1.353-0.065,2.029-0.098c0.879-0.042,1.761-0.084,2.632-0.128c0.753-0.038,1.495-0.079,2.241-0.118
				c1.343-0.071,2.676-0.144,4-0.219c0.927-0.053,1.856-0.105,2.773-0.159c0.615-0.037,1.221-0.075,1.832-0.113
				c0.891-0.055,1.783-0.109,2.664-0.166c0.628-0.04,1.247-0.082,1.87-0.124c0.849-0.056,1.699-0.113,2.54-0.171
				c0.624-0.043,1.241-0.088,1.86-0.132c0.836-0.06,1.672-0.12,2.499-0.181c0.597-0.044,1.19-0.09,1.782-0.135
				c0.837-0.064,1.67-0.129,2.497-0.195c0.576-0.046,1.148-0.093,1.719-0.139c0.838-0.069,1.671-0.139,2.5-0.21
				c0.545-0.047,1.089-0.094,1.63-0.141c0.853-0.075,1.699-0.151,2.542-0.228c0.501-0.046,1.003-0.092,1.5-0.138
				c0.888-0.083,1.767-0.169,2.643-0.254c0.442-0.043,0.887-0.086,1.326-0.13c0.947-0.095,1.884-0.192,2.817-0.29
				c0.358-0.038,0.72-0.074,1.076-0.112c1.137-0.121,2.262-0.245,3.378-0.371c0.139-0.016,0.282-0.031,0.421-0.047
				c2.584-0.294,5.11-0.6,7.578-0.918c0.099-0.013,0.196-0.026,0.295-0.039c1.104-0.143,2.198-0.289,3.279-0.437
				c0.25-0.034,0.495-0.07,0.744-0.104c0.931-0.129,1.856-0.26,2.77-0.393c0.291-0.042,0.578-0.086,0.867-0.128
				c0.86-0.127,1.714-0.256,2.557-0.386c0.313-0.049,0.624-0.098,0.935-0.147c0.812-0.128,1.617-0.257,2.414-0.388
				c0.317-0.052,0.632-0.105,0.947-0.157c0.788-0.132,1.568-0.265,2.342-0.4c0.301-0.053,0.602-0.105,0.901-0.158
				c0.787-0.14,1.565-0.281,2.336-0.425c0.27-0.05,0.542-0.1,0.81-0.151c0.81-0.153,1.61-0.308,2.403-0.465
				c0.215-0.043,0.433-0.085,0.648-0.127c0.873-0.175,1.734-0.352,2.586-0.532c0.126-0.027,0.256-0.053,0.382-0.079
				c3.978-0.845,7.72-1.743,11.222-2.695c0.119-0.032,0.234-0.065,0.352-0.098c0.737-0.202,1.465-0.406,2.18-0.613
				c0.175-0.051,0.346-0.102,0.52-0.153c0.651-0.191,1.295-0.383,1.928-0.578c0.2-0.061,0.396-0.124,0.594-0.185
				c0.6-0.188,1.193-0.377,1.776-0.569c0.205-0.067,0.408-0.135,0.611-0.203c0.569-0.19,1.13-0.382,1.682-0.576
				c0.199-0.07,0.397-0.139,0.594-0.21c0.55-0.196,1.09-0.395,1.624-0.595c0.184-0.069,0.369-0.138,0.551-0.207
				c0.548-0.209,1.085-0.421,1.615-0.634c0.154-0.062,0.31-0.123,0.462-0.185c0.571-0.233,1.128-0.469,1.678-0.706
				c0.101-0.044,0.206-0.087,0.306-0.131c1.975-0.864,3.813-1.76,5.51-2.688c0.045-0.025,0.088-0.05,0.133-0.075
				c0.503-0.277,0.995-0.557,1.473-0.84c0.126-0.074,0.245-0.15,0.369-0.225c0.391-0.236,0.777-0.473,1.15-0.712
				c0.152-0.097,0.298-0.196,0.447-0.294c0.226-0.149,0.459-0.296,0.678-0.446l0.423,0.986
				C497.023,301.602,494.277,312.164,486.549,317.732z"/>
		</g>
	</g>
</g>
</svg>